<?xml version="1.0" standalone="no"?>
<!DOCTYPE svg PUBLIC "-//W3C//DTD SVG 20010904//EN"
 "http://www.w3.org/TR/2001/REC-SVG-20010904/DTD/svg10.dtd">
<svg version="1.0" xmlns="http://www.w3.org/2000/svg"
 width="1770.000000pt" height="1552.000000pt" viewBox="0 0 1770.000000 1552.000000"
 preserveAspectRatio="xMidYMid meet">

<g transform="translate(0.000000,1552.000000) scale(0.100000,-0.100000)"
fill="#000000" stroke="none">
<path d="M10630 12799 c0 -8 27 -63 60 -124 209 -385 236 -465 260 -800 13
-179 31 -271 66 -342 38 -79 416 -507 678 -768 149 -148 241 -225 272 -225 18
0 53 65 84 160 124 371 -8 1136 -245 1423 -174 211 -687 539 -1007 645 -122
40 -168 49 -168 31z"/>
<path d="M12193 11765 c-11 -29 5 -245 29 -400 20 -130 23 -186 23 -420 -1
-276 -9 -378 -46 -563 -25 -128 -26 -126 101 -336 165 -274 219 -371 296 -538
75 -162 167 -314 207 -343 21 -15 24 -14 60 26 75 84 138 254 173 464 22 136
26 497 6 655 -85 686 -369 1201 -795 1444 -42 24 -48 25 -54 11z"/>
<path d="M10782 11098 c-33 -51 -102 -165 -152 -253 -170 -296 -252 -407 -480
-655 -270 -294 -322 -386 -290 -518 15 -65 70 -154 224 -360 68 -92 161 -225
206 -297 46 -71 102 -155 125 -185 117 -153 226 -201 334 -148 155 75 779 831
964 1168 68 124 92 250 66 345 -27 98 -317 464 -572 723 -67 68 -144 141 -172
162 -61 47 -164 110 -181 110 -6 0 -39 -42 -72 -92z"/>
<path d="M11951 9759 c-22 -27 -93 -127 -158 -222 -295 -434 -469 -650 -774
-962 -118 -121 -170 -181 -178 -208 -22 -67 0 -124 126 -328 49 -79 123 -205
163 -279 103 -191 145 -263 208 -358 63 -94 57 -93 167 -44 224 100 622 527
948 1017 118 178 169 288 175 379 3 50 -1 90 -12 130 -22 73 -291 611 -355
708 -63 95 -134 165 -196 194 -27 13 -56 24 -62 24 -7 0 -31 -23 -52 -51z"/>
<path d="M9438 9406 c-122 -50 -201 -110 -448 -336 -196 -180 -357 -315 -568
-476 -229 -174 -268 -209 -298 -260 -23 -39 -26 -53 -22 -109 5 -79 34 -138
202 -410 241 -391 326 -501 452 -591 l64 -46 87 47 c273 145 946 644 1210 898
111 107 146 160 140 211 -12 86 -156 337 -359 621 -173 241 -367 475 -393 475
-6 0 -35 -11 -67 -24z"/>
<path d="M12724 8412 c-60 -44 -151 -148 -307 -351 -227 -298 -275 -352 -552
-626 -346 -342 -347 -344 -305 -548 39 -192 132 -533 150 -551 12 -12 142 67
240 145 211 168 606 563 730 729 160 217 224 446 200 719 -16 168 -85 501
-106 508 -6 2 -28 -9 -50 -25z"/>
<path d="M10371 7970 c-60 -28 -147 -90 -318 -228 -223 -179 -376 -291 -613
-448 -234 -154 -334 -234 -404 -320 l-46 -55 16 -37 c66 -159 258 -406 494
-636 124 -121 133 -128 163 -122 54 10 362 168 552 283 306 185 664 426 803
542 l59 49 -8 61 c-11 78 -66 220 -128 330 -75 133 -257 419 -306 483 -84 108
-173 141 -264 98z"/>
<path d="M7608 7956 c-116 -48 -263 -150 -685 -478 l-274 -213 4 -85 c3 -60
10 -97 25 -125 29 -57 448 -566 538 -653 160 -157 206 -152 524 57 85 56 258
164 384 239 325 194 362 233 330 341 -15 53 -62 128 -204 326 -51 72 -144 209
-208 305 -143 218 -165 246 -221 282 -58 36 -131 38 -213 4z"/>
<path d="M6334 6965 c-129 -64 -338 -255 -441 -402 l-42 -60 23 -49 c83 -174
376 -470 649 -653 88 -59 86 -59 187 -3 125 68 370 243 433 310 l28 29 -21 52
c-34 88 -93 162 -203 258 -111 97 -168 160 -305 337 -78 99 -200 216 -228 216
-6 0 -42 -16 -80 -35z"/>
<path d="M11124 6771 c-91 -33 -194 -92 -437 -254 -131 -86 -354 -222 -496
-301 -142 -79 -300 -172 -350 -206 -105 -70 -102 -57 -40 -182 48 -96 151
-248 236 -351 64 -76 66 -77 102 -71 205 36 590 234 1084 560 184 122 217 147
217 168 0 48 -41 263 -66 346 -28 91 -79 199 -126 268 -33 48 -47 51 -124 23z"/>
<path d="M8401 6624 c-178 -93 -427 -239 -531 -312 -164 -115 -280 -228 -280
-272 0 -55 535 -537 657 -593 31 -14 132 10 258 59 106 42 450 222 654 342
143 84 143 84 137 115 -15 74 -179 314 -329 481 -140 155 -295 266 -371 266
-19 0 -94 -33 -195 -86z"/>
<path d="M7255 5915 c-64 -20 -155 -69 -220 -118 -63 -48 -215 -198 -215 -214
0 -4 33 -40 73 -79 355 -348 654 -455 932 -333 73 32 245 158 245 179 0 4
-129 128 -286 276 -197 185 -299 274 -327 286 -49 20 -145 22 -202 3z"/>
<path d="M9475 5770 c-168 -26 -553 -171 -771 -291 -59 -32 -81 -39 -130 -40
-60 -1 -61 -2 -10 -14 29 -6 29 -6 -35 -49 -93 -62 -94 -65 -61 -112 43 -58
182 -184 245 -223 117 -69 172 -86 282 -85 121 0 178 17 470 141 110 47 241
100 290 118 102 37 100 33 57 130 -42 95 -107 201 -199 323 -46 61 -85 111
-86 111 -1 -1 -24 -5 -52 -9z"/>
<path d="M5195 4441 c-90 -25 -136 -45 -204 -88 -204 -130 -324 -336 -338
-578 -10 -175 26 -323 112 -461 87 -140 226 -250 379 -301 74 -25 94 -27 236
-27 141 0 162 2 233 26 223 75 398 250 473 473 24 71 27 96 28 220 l1 140
-256 3 c-239 2 -258 1 -280 -17 -34 -26 -162 -218 -154 -231 4 -6 81 -10 206
-10 152 0 199 -3 199 -12 0 -32 -64 -144 -111 -193 -213 -225 -532 -203 -710
49 -64 91 -91 174 -91 287 0 254 191 470 431 486 134 10 241 -28 337 -119 31
-29 59 -48 67 -45 16 6 157 184 157 198 0 13 -85 80 -152 122 -106 64 -202 89
-358 93 -111 3 -148 1 -205 -15z"/>
<path d="M9086 4444 c-175 -42 -312 -174 -353 -338 -14 -59 -15 -81 -5 -147
30 -208 149 -306 447 -369 83 -18 168 -40 190 -50 80 -34 119 -113 96 -190
-49 -164 -324 -170 -503 -11 -25 22 -53 41 -61 41 -13 0 -142 -155 -154 -186
-7 -18 58 -78 133 -123 275 -167 653 -115 803 110 49 73 71 146 71 236 0 129
-58 242 -162 319 -76 56 -141 79 -318 115 -173 35 -191 41 -230 85 -54 62 -52
140 7 205 49 54 104 73 200 67 87 -5 164 -36 218 -89 17 -16 38 -29 46 -29 20
0 169 151 169 172 0 25 -86 94 -165 133 -123 62 -296 81 -429 49z"/>
<path d="M10495 4449 c-275 -46 -504 -266 -570 -549 -22 -95 -23 -261 -1 -352
78 -330 336 -549 666 -565 175 -9 321 30 459 122 286 189 402 573 271 896 -73
180 -236 342 -416 412 -108 42 -284 57 -409 36z m328 -282 c196 -93 314 -312
279 -519 -54 -318 -370 -506 -642 -382 -176 81 -291 257 -291 449 -1 99 12
149 59 239 60 114 153 194 277 239 38 13 73 17 145 14 86 -2 103 -6 173 -40z"/>
<path d="M1872 4432 c-10 -7 -12 -157 -10 -718 l3 -709 440 -3 c242 -1 450 0
463 3 22 5 23 8 20 133 l-3 127 -332 3 -333 2 0 160 0 160 264 0 c231 0 265 2
270 16 8 20 8 208 0 228 -5 14 -39 16 -270 16 l-264 0 0 160 0 160 263 0 c216
0 266 3 284 15 11 8 57 63 102 121 64 84 79 110 70 120 -9 12 -97 14 -483 14
-259 0 -477 -4 -484 -8z"/>
<path d="M3152 4432 c-10 -6 -12 -157 -10 -718 l3 -709 105 -3 c58 -2 115 0
127 3 l23 5 2 485 3 484 364 -474 c200 -261 370 -480 379 -487 21 -18 237 -24
257 -8 13 11 15 111 15 709 0 529 -3 700 -12 709 -18 18 -232 16 -247 -1 -7
-10 -12 -158 -13 -487 l-3 -473 -361 469 c-199 258 -369 476 -379 484 -20 17
-231 27 -253 12z"/>
<path d="M6368 4429 c-17 -9 -18 -54 -18 -707 0 -530 3 -701 12 -710 13 -13
212 -17 242 -6 14 6 16 78 16 714 0 636 -2 708 -16 714 -26 10 -218 6 -236 -5z"/>
<path d="M6923 4433 c-10 -4 -13 -156 -13 -714 l0 -709 23 -5 c12 -3 220 -4
462 -3 l440 3 0 130 0 130 -333 3 -333 2 3 158 3 157 265 5 265 5 0 125 0 125
-267 3 -268 2 0 160 0 160 260 0 c161 0 268 4 282 11 23 10 188 219 188 237 0
6 -7 13 -16 16 -19 7 -943 7 -961 -1z"/>
<path d="M14121 4426 c-8 -9 -10 -204 -9 -712 l3 -699 128 -3 127 -3 0 581 c0
458 3 582 13 585 7 3 141 4 299 3 l288 -3 -200 -260 c-118 -153 -199 -267
-198 -278 4 -27 449 -604 476 -616 13 -6 86 -11 167 -11 121 0 145 2 145 15 0
8 -104 150 -231 315 l-230 300 159 208 c87 114 164 217 170 229 8 14 12 80 12
186 0 141 -2 166 -16 171 -9 3 -258 6 -554 6 -441 0 -540 -2 -549 -14z"/>
<path d="M11617 4423 c-4 -3 -7 -323 -7 -710 l0 -703 333 0 333 0 26 28 c65
71 160 204 154 217 -5 13 -49 15 -296 15 l-290 0 0 580 0 580 -123 0 c-68 0
-127 -3 -130 -7z"/>
<path d="M13543 4408 c-57 -62 -1062 -1382 -1057 -1389 9 -15 308 -11 326 4 8
6 93 113 188 237 94 124 176 226 180 228 4 2 81 -93 170 -210 228 -299 189
-268 342 -268 l128 0 0 710 0 710 -128 0 c-120 0 -130 -1 -149 -22z m15 -820
l-3 -131 -97 126 c-54 69 -98 131 -98 136 0 6 44 67 98 137 l97 126 3 -131 c1
-72 1 -190 0 -263z"/>
<path d="M11654 2778 c-76 -73 -89 -103 -59 -128 25 -21 60 -3 124 65 65 70
77 106 42 125 -11 5 -23 10 -26 10 -4 0 -40 -32 -81 -72z"/>
<path d="M13257 2794 c-4 -4 -7 -163 -7 -354 0 -342 0 -348 23 -390 26 -49 75
-80 127 -80 41 0 60 14 60 47 0 25 -26 43 -64 43 -17 0 -32 9 -43 27 -16 24
-19 64 -23 368 l-5 340 -30 3 c-17 2 -34 0 -38 -4z"/>
<path d="M6986 2764 c-36 -35 -6 -104 44 -104 20 0 60 41 60 61 0 49 -69 78
-104 43z"/>
<path d="M3960 2551 c-44 -14 -84 -38 -117 -73 -104 -108 -106 -315 -5 -421
88 -93 244 -117 362 -57 54 27 74 54 60 79 -14 28 -38 26 -95 -6 -123 -68
-286 -3 -311 125 l-6 32 211 0 c127 0 220 4 232 10 24 13 25 65 3 140 -20 67
-99 150 -160 168 -45 13 -135 15 -174 3z m170 -91 c42 -21 71 -57 88 -109 7
-19 12 -36 12 -37 0 -2 -86 -4 -191 -4 l-191 0 7 28 c28 115 167 177 275 122z"/>
<path d="M4460 2540 c-19 -19 -20 -33 -20 -279 0 -223 2 -262 16 -275 8 -9 23
-16 33 -16 37 0 41 19 41 199 0 150 3 182 19 217 61 135 301 117 341 -24 5
-21 10 -111 10 -202 0 -116 4 -170 12 -178 18 -18 56 -14 68 7 13 26 13 316
-1 381 -23 109 -126 190 -243 190 -76 0 -122 -13 -166 -45 l-35 -26 -3 23 c-3
22 -27 48 -44 48 -4 0 -17 -9 -28 -20z"/>
<path d="M5330 2551 c-78 -25 -137 -81 -173 -160 -29 -65 -29 -189 -1 -251 75
-164 261 -221 426 -132 51 27 67 54 48 77 -17 20 -31 19 -87 -9 -69 -34 -115
-40 -177 -22 -73 21 -146 103 -146 162 0 12 35 14 213 14 255 0 253 -1 245 87
-9 97 -64 179 -147 220 -39 19 -160 28 -201 14z m157 -82 c15 -6 39 -20 52
-32 24 -22 60 -91 61 -114 0 -10 -45 -13 -190 -13 -145 0 -190 3 -190 13 0 6
13 35 30 63 46 81 149 117 237 83z"/>
<path d="M5838 2549 c-17 -9 -18 -34 -18 -289 l0 -280 25 -6 c51 -13 55 2 55
197 0 184 5 217 43 258 31 33 61 43 152 50 72 5 80 8 83 28 5 32 -33 53 -96
53 -61 0 -103 -15 -149 -54 l-33 -28 0 31 c0 20 -7 34 -19 41 -23 12 -22 12
-43 -1z"/>
<path d="M6406 2544 c-68 -21 -147 -101 -171 -173 -35 -106 -11 -235 60 -319
93 -111 301 -113 402 -5 l35 38 -6 -55 c-13 -103 -62 -171 -145 -199 -75 -25
-162 -5 -226 51 -47 42 -79 47 -99 16 -24 -39 86 -129 181 -148 157 -33 301
39 353 176 17 47 20 78 20 228 0 211 -9 247 -85 323 -39 38 -66 55 -105 67
-66 20 -149 19 -214 0z m192 -79 c142 -60 174 -256 59 -362 -98 -90 -257 -70
-322 40 -67 116 -25 266 90 318 49 23 123 24 173 4z"/>
<path d="M7000 2540 c-19 -19 -20 -33 -20 -279 0 -223 2 -262 16 -275 18 -19
45 -21 62 -4 9 9 12 86 12 285 0 259 -1 273 -19 283 -26 13 -28 13 -51 -10z"/>
<path d="M7439 2544 c-64 -19 -140 -90 -170 -156 -30 -70 -32 -182 -2 -249 47
-106 142 -170 255 -171 78 -2 126 14 183 58 l45 34 0 -33 c0 -38 15 -57 46
-57 42 0 46 19 42 202 -3 156 -5 178 -26 219 -67 137 -221 200 -373 153z m182
-78 c132 -57 173 -250 76 -354 -59 -64 -163 -82 -248 -45 -127 57 -160 241
-61 347 57 60 160 83 233 52z"/>
<path d="M8316 2538 c-14 -19 -16 -63 -16 -276 0 -155 4 -261 10 -273 12 -21
50 -25 68 -7 8 8 12 66 12 195 0 196 4 216 52 259 33 30 81 44 154 44 56 0 63
2 70 22 11 34 -27 58 -92 58 -63 0 -117 -20 -156 -57 l-28 -27 0 32 c0 21 -6
35 -19 42 -28 15 -38 13 -55 -12z"/>
<path d="M8881 2543 c-61 -22 -133 -96 -154 -158 -22 -62 -22 -177 -1 -239 23
-67 95 -138 163 -161 30 -10 83 -17 118 -17 54 0 76 5 131 33 54 28 67 39 67
58 0 43 -27 48 -90 16 -95 -48 -204 -35 -267 32 -25 26 -58 90 -58 113 0 6 75
10 218 10 119 0 224 4 232 10 17 10 17 74 0 135 -17 62 -72 129 -127 156 -61
30 -168 36 -232 12z m176 -74 c38 -14 71 -46 94 -91 36 -70 41 -68 -172 -68
l-190 0 7 23 c18 60 66 117 114 136 34 13 112 13 147 0z"/>
<path d="M9408 2549 c-16 -9 -18 -34 -18 -282 0 -280 2 -297 40 -297 42 1 45
11 50 219 l5 200 29 30 c42 44 104 65 167 58 68 -8 109 -34 139 -88 23 -41 25
-57 30 -223 4 -156 7 -180 23 -190 12 -8 22 -8 35 0 15 10 17 32 17 210 0 226
-6 249 -85 316 -47 41 -97 58 -172 58 -65 0 -111 -14 -155 -47 -26 -19 -33
-21 -33 -9 0 16 -34 56 -47 56 -5 0 -16 -5 -25 -11z"/>
<path d="M10266 2544 c-68 -22 -147 -102 -171 -173 -23 -70 -17 -189 12 -246
29 -55 88 -110 147 -136 68 -30 173 -29 244 1 181 78 229 321 96 479 -64 77
-215 111 -328 75z m192 -79 c96 -41 145 -143 121 -256 -16 -75 -82 -142 -156
-157 -158 -34 -292 106 -254 265 31 127 169 198 289 148z"/>
<path d="M10737 2542 c-10 -10 -17 -21 -17 -24 0 -13 243 -524 255 -537 8 -8
23 -11 38 -8 20 6 43 48 145 268 67 144 122 270 122 281 0 26 -46 46 -65 27
-7 -8 -58 -112 -113 -232 l-99 -217 -98 212 c-119 259 -129 273 -168 230z"/>
<path d="M11515 2540 c-61 -24 -126 -85 -157 -149 -31 -63 -32 -185 -2 -252
51 -109 144 -171 262 -171 77 0 128 17 185 63 l37 30 0 -34 c0 -42 21 -62 55
-53 34 9 38 32 33 210 -4 142 -6 156 -31 209 -69 140 -234 204 -382 147z m200
-79 c118 -53 160 -203 89 -318 -90 -146 -321 -120 -374 43 -7 20 -10 65 -8
100 3 51 10 71 35 106 59 82 167 111 258 69z"/>
<path d="M11998 2549 c-10 -5 -18 -19 -18 -30 0 -12 55 -138 122 -280 101
-215 126 -261 146 -266 14 -3 29 0 37 8 8 8 62 118 120 244 149 320 138 289
117 315 -37 46 -53 24 -162 -216 -57 -123 -104 -223 -105 -222 -1 2 -48 102
-104 222 -90 195 -112 236 -131 236 -3 -1 -13 -5 -22 -11z"/>
<path d="M12766 2545 c-91 -32 -159 -119 -175 -223 -29 -182 67 -324 236 -351
128 -20 300 57 253 114 -17 20 -37 19 -74 -4 -82 -51 -197 -45 -263 12 -34 30
-72 96 -73 125 0 9 50 12 219 12 253 0 246 -3 239 87 -11 146 -119 244 -267
243 -31 -1 -73 -7 -95 -15z m171 -76 c15 -6 39 -20 52 -32 24 -22 60 -91 61
-114 0 -10 -45 -13 -191 -13 l-190 0 7 23 c18 60 66 117 114 136 34 13 112 13
147 0z"/>
</g>
</svg>
